<?xml version="1.0" standalone="no"?>
<!DOCTYPE svg PUBLIC "-//W3C//DTD SVG 20010904//EN"
 "http://www.w3.org/TR/2001/REC-SVG-20010904/DTD/svg10.dtd">
<svg version="1.0" xmlns="http://www.w3.org/2000/svg"
 width="700.000000pt" height="700.000000pt" viewBox="0 0 700.000000 700.000000"
 preserveAspectRatio="xMidYMid meet">
<metadata>
Created by potrace 1.14, written by Peter Selinger 2001-2017
</metadata>
<g transform="translate(0.000000,700.000000) scale(0.100000,-0.100000)"
fill="#000000" stroke="none">
<path d="M3330 6660 c-144 -40 -198 -66 -590 -293 -162 -94 -380 -220 -485
-280 -104 -60 -233 -134 -285 -164 -52 -31 -124 -73 -160 -93 -36 -21 -194
-113 -351 -203 -345 -200 -390 -228 -453 -286 -133 -125 -105 -233 96 -370 39
-26 481 -284 638 -373 25 -14 61 -34 80 -45 1289 -747 1323 -766 1445 -806
106 -35 133 -39 245 -39 121 1 235 32 380 105 58 29 353 196 655 371 303 175
566 328 585 338 19 11 107 62 195 113 88 51 248 144 355 205 308 178 388 247
395 342 4 57 -20 103 -90 166 -71 65 -41 47 -1180 704 -71 42 -287 166 -480
278 -554 320 -603 341 -805 345 -96 3 -140 -1 -190 -15z m355 -589 c107 -38
164 -93 173 -166 13 -120 -141 -215 -352 -217 -345 -3 -498 248 -226 369 79
36 122 43 240 39 74 -3 122 -10 165 -25z m600 -347 c141 -49 208 -139 171
-227 -40 -98 -176 -159 -351 -158 -107 1 -192 21 -260 62 -171 103 -112 269
117 334 70 20 253 14 323 -11z m-1809 -353 c100 -35 174 -111 174 -178 0 -54
-53 -119 -127 -157 -87 -44 -257 -61 -367 -36 -116 26 -218 102 -228 170 -14
92 74 178 220 215 82 21 249 14 328 -14z m2373 13 c158 -35 249 -132 216 -228
-59 -171 -421 -228 -625 -98 -60 38 -96 103 -86 156 26 137 271 222 495 170z
m-1838 -344 c75 -14 174 -65 207 -106 112 -140 -56 -295 -323 -296 -139 -1
-253 39 -318 111 -60 66 -59 124 2 194 75 85 266 128 432 97z m675 -368 c103
-39 162 -95 171 -162 17 -123 -141 -221 -355 -222 -201 0 -362 89 -362 202 0
90 78 158 225 196 72 19 255 11 321 -14z"/>
<path d="M702 4803 c-40 -19 -58 -45 -86 -121 -21 -56 -21 -68 -24 -1272 -3
-1340 -4 -1328 59 -1490 57 -148 172 -278 345 -388 96 -61 1786 -1039 1948
-1127 206 -111 331 -113 386 -4 50 96 50 97 47 1404 -3 939 -6 1232 -16 1270
-54 216 -130 337 -291 462 -76 59 -137 97 -360 225 -404 233 -510 294 -745
430 -137 80 -270 156 -295 170 -25 14 -70 40 -100 58 -55 33 -88 52 -157 91
-21 12 -110 63 -198 114 -325 188 -424 222 -513 178z m647 -878 c79 -37 180
-142 223 -235 127 -268 32 -475 -172 -373 -69 34 -166 132 -207 210 -66 124
-85 277 -43 352 41 72 108 88 199 46z m1198 -693 c50 -20 140 -93 174 -140 13
-18 30 -39 37 -47 37 -41 84 -195 83 -273 -1 -70 -3 -79 -24 -119 -81 -153
-346 -7 -444 244 -22 56 -27 85 -27 165 -1 109 12 138 75 170 42 22 72 22 126
0z m-1184 -713 c65 -34 169 -144 206 -219 80 -164 82 -312 5 -379 -45 -40 -99
-42 -173 -4 -152 75 -272 276 -273 454 -1 154 99 217 235 148z m1192 -693
c166 -78 290 -279 286 -464 -4 -194 -162 -230 -326 -75 -100 95 -162 218 -172
344 -8 89 2 133 38 174 44 50 98 57 174 21z"/>
<path d="M6130 4801 c-82 -26 -136 -55 -665 -361 -267 -154 -502 -290 -522
-301 -21 -12 -94 -54 -163 -94 -165 -97 -553 -321 -610 -353 -353 -200 -482
-355 -534 -647 -12 -66 -14 -285 -14 -1270 -1 -738 3 -1213 9 -1250 14 -85 51
-160 91 -185 49 -31 141 -23 244 22 68 29 1880 1068 2034 1166 153 97 265 214
324 337 87 181 85 140 85 1505 1 990 -2 1206 -14 1262 -35 170 -112 218 -265
169z m-336 -866 c51 -24 78 -82 77 -163 -1 -139 -55 -264 -159 -369 -97 -100
-190 -134 -266 -98 -93 44 -100 213 -17 392 38 80 148 193 222 228 62 29 98
31 143 10z m-1195 -712 c49 -36 63 -78 58 -173 -8 -141 -62 -257 -170 -361
-140 -135 -291 -129 -322 11 -37 164 70 392 236 504 73 49 147 56 198 19z
m586 -337 c99 -42 109 -214 24 -393 -37 -78 -148 -196 -214 -229 -55 -26 -146
-26 -175 1 -125 113 -29 433 172 580 72 52 134 65 193 41z m609 -351 c52 -25
80 -85 78 -169 -3 -135 -57 -259 -159 -363 -124 -126 -260 -149 -317 -52 -43
72 -27 228 37 354 39 77 148 187 218 220 62 29 98 31 143 10z m-1196 -711 c43
-32 62 -80 62 -155 0 -261 -267 -548 -431 -463 -96 49 -89 277 12 436 40 62
148 162 201 186 54 24 120 22 156 -4z"/>
</g>
</svg>
