<?xml version="1.0" encoding="UTF-8" standalone="no"?>
<!-- Created with Inkscape (http://www.inkscape.org/) -->

<svg
   width="50mm"
   height="50mm"
   viewBox="0 0 50 50"
   version="1.1"
   id="svg5"
   xml:space="preserve"
   inkscape:version="1.2.2 (732a01da63, 2022-12-09)"
   sodipodi:docname="playfair_logo.svg"
   xmlns:inkscape="http://www.inkscape.org/namespaces/inkscape"
   xmlns:sodipodi="http://sodipodi.sourceforge.net/DTD/sodipodi-0.dtd"
   xmlns="http://www.w3.org/2000/svg"
   xmlns:svg="http://www.w3.org/2000/svg"><sodipodi:namedview
     id="namedview7"
     pagecolor="#ffffff"
     bordercolor="#000000"
     borderopacity="0.25"
     inkscape:showpageshadow="2"
     inkscape:pageopacity="0.0"
     inkscape:pagecheckerboard="0"
     inkscape:deskcolor="#d1d1d1"
     inkscape:document-units="mm"
     showgrid="true"
     inkscape:zoom="3.0894781"
     inkscape:cx="148.40694"
     inkscape:cy="69.914722"
     inkscape:window-width="1920"
     inkscape:window-height="1027"
     inkscape:window-x="-8"
     inkscape:window-y="-8"
     inkscape:window-maximized="1"
     inkscape:current-layer="layer1"><inkscape:grid
       type="axonomgrid"
       id="grid132"
       originx="-65.817688"
       originy="-151.87497" /></sodipodi:namedview><defs
     id="defs2"><inkscape:path-effect
       effect="roughen"
       id="path-effect1161"
       is_visible="true"
       lpeversion="1.2"
       method="size"
       max_segment_size="0.424997"
       segments="2"
       displace_x="10;1"
       displace_y="10;1"
       global_randomize="1;1"
       handles="along"
       shift_nodes="true"
       fixed_displacement="false"
       spray_tool_friendly="false" /><inkscape:path-effect
       effect="vonkoch"
       id="path-effect1159"
       is_visible="true"
       lpeversion="1"
       ref_path="M 72.414842,164.77783 H 109.22105"
       generator="m 72.414842,175.40277 h 12.268737 m 12.268736,0 h 12.268735"
       similar_only="false"
       nbgenerations="1"
       drawall="true"
       maxComplexity="1000" /><inkscape:path-effect
       effect="sketch"
       id="path-effect1157"
       is_visible="true"
       lpeversion="1"
       nbiter_approxstrokes="5"
       strokelength="100"
       strokelength_rdm="0.3;1"
       strokeoverlap="0.3"
       strokeoverlap_rdm="0.3;1"
       ends_tolerance="0.1;1"
       parallel_offset="5;1"
       tremble_size="5;1"
       tremble_frequency="1"
       nbtangents="5"
       tgt_places_rdmness="1;1"
       tgtscale="10"
       tgtlength="100"
       tgtlength_rdm="0.3;1" /><inkscape:path-effect
       effect="rough_hatches"
       id="path-effect1106"
       is_visible="true"
       lpeversion="1.2"
       direction="86.6644,160.12039 , 2.0934214,1.2846026"
       dist_rdm="75;1"
       growth="0"
       do_bend="true"
       bender="90.261286,165.33449 , -0.0099480648,0.042820976"
       bottom_edge_variation="2.124987;1"
       top_edge_variation="2.124987;1"
       bottom_tgt_variation="0;1"
       top_tgt_variation="0;1"
       scale_bf="1"
       scale_bb="1"
       scale_tf="1"
       scale_tb="1"
       top_smth_variation="0;1"
       bottom_smth_variation="0;1"
       fat_output="true"
       stroke_width_top="1"
       stroke_width_bottom="1"
       front_thickness="1"
       back_thickness="0.25" /><inkscape:path-effect
       effect="rough_hatches"
       id="path-effect1053"
       is_visible="true"
       lpeversion="1.2"
       direction="86.602464,169.59704 , 10.392388,0"
       dist_rdm="0;1"
       growth="0"
       do_bend="true"
       bender="86.602464,174.59704 , 5,0"
       bottom_edge_variation="0;1"
       top_edge_variation="0;1"
       bottom_tgt_variation="0;1"
       top_tgt_variation="0;1"
       scale_bf="1"
       scale_bb="1"
       scale_tf="1"
       scale_tb="1"
       top_smth_variation="0;1"
       bottom_smth_variation="0;1"
       fat_output="true"
       stroke_width_top="1"
       stroke_width_bottom="1"
       front_thickness="1"
       back_thickness="0.25" /></defs><g
     inkscape:label="Layer 1"
     inkscape:groupmode="layer"
     id="layer1"
     transform="translate(-65.817688,-151.87497)"><path
       id="path312"
       style="fill:#808080;stroke-width:2.64583"
       d="m 71.396653,167.4601 c -0.99069,-0.0433 -1.363741,0.84916 -1.363741,2.81791 v 15.00012 c 0,3 0.866312,4.49969 3.480408,6.00893 l 12.974402,7.49102 c 2.598074,1.5 3.463871,0.9996 3.463871,-2.00039 v -14.99961 c 0,-2.99999 -0.865797,-4.50015 -3.463871,-6.00015 L 73.4973,168.27813 c -0.893088,-0.51562 -1.581714,-0.79538 -2.100647,-0.81803 z m 3.4401,6.19497 c 0.79451,0.005 1.710356,0.90546 2.124418,1.62264 0.500001,0.86603 0.866025,2.50033 0,3.00033 -0.866025,0.5 -2.097773,-0.63414 -2.597774,-1.50017 -0.499999,-0.86603 -0.866025,-2.49981 0,-2.99981 0.148848,-0.0859 0.308458,-0.12394 0.473356,-0.12299 z m 8.659937,5.00021 c 0.794509,0.005 1.710872,0.90546 2.124935,1.62264 0.499999,0.86603 0.866025,2.49983 0,2.99981 -0.866027,0.5 -2.098292,-0.63362 -2.598291,-1.49965 -0.500001,-0.86601 -0.866027,-2.50033 0,-3.00033 0.148847,-0.0859 0.308457,-0.12342 0.473356,-0.12247 z m -8.659937,5.00021 c 0.79451,0.005 1.710356,0.90546 2.124418,1.62264 0.500001,0.86603 0.866025,2.49982 0,2.99982 -0.866025,0.5 -2.097773,-0.63414 -2.597774,-1.50017 -0.499999,-0.86603 -0.866025,-2.49982 0,-2.99982 0.148848,-0.0859 0.308458,-0.12341 0.473356,-0.12247 z m 8.659937,4.99969 c 0.794509,0.005 1.710872,0.90546 2.124935,1.62264 0.499999,0.86603 0.866025,2.50034 0,3.00034 -0.866027,0.5 -2.098292,-0.63414 -2.598291,-1.50017 -0.500001,-0.86603 -0.866027,-2.49982 0,-2.99982 0.148847,-0.0859 0.308457,-0.12393 0.473356,-0.12299 z" /><path
       id="path312-3"
       style="fill:#666666;fill-opacity:1;stroke-width:2.64583"
       d="m 110.23872,167.4601 c -0.51893,0.0226 -1.20756,0.30241 -2.10064,0.81803 l -12.990422,7.4998 c -2.598077,1.5 -3.463871,3.00016 -3.463871,6.00015 v 14.99961 c 0,2.99999 0.865794,3.50039 3.463871,2.00039 l 12.974402,-7.49102 c 2.61409,-1.50924 3.4804,-3.00893 3.4804,-6.00893 v -15.00012 c 0,-1.96875 -0.37305,-2.86117 -1.36374,-2.81791 z m -3.4401,6.19497 c 0.1649,-9.5e-4 0.32503,0.037 0.47388,0.12299 0.86601,0.5 0.49998,2.13378 0,2.99981 -0.5,0.86603 -1.73227,2.00017 -2.5983,1.50017 -0.86602,-0.5 -0.49999,-2.1343 0,-3.00033 0.41407,-0.71718 1.32991,-1.6181 2.12442,-1.62264 z m -8.65993,5.00021 c 0.164899,-9.5e-4 0.324507,0.0365 0.473356,0.12247 0.866018,0.5 0.5,2.13432 0,3.00033 -0.499998,0.86603 -1.732273,1.99965 -2.598291,1.49965 -0.866028,-0.49998 -0.499998,-2.13378 0,-2.99981 0.414062,-0.71718 1.330424,-1.61809 2.124935,-1.62264 z m 4.32997,2.5001 c 0.1649,-9.4e-4 0.32451,0.0365 0.47335,0.12248 0.86603,0.5 0.5,2.13378 0,2.99981 -0.5,0.86603 -1.73175,2.00017 -2.59777,1.50017 -0.866025,-0.5 -0.499999,-2.13379 0,-2.99982 0.41406,-0.71718 1.32991,-1.61809 2.12442,-1.62264 z m 4.32996,2.50011 c 0.1649,-9.4e-4 0.32503,0.0365 0.47388,0.12247 0.866,0.5 0.49998,2.13379 0,2.99982 -0.5,0.86603 -1.73228,2.00017 -2.5983,1.50017 -0.86602,-0.5 -0.5,-2.13379 0,-2.99982 0.41407,-0.71718 1.32991,-1.61809 2.12442,-1.62264 z m -8.65993,4.99969 c 0.164899,-9.4e-4 0.324507,0.0371 0.473356,0.12299 0.866028,0.5 0.5,2.13379 0,2.99982 -0.499998,0.86603 -1.732263,2.00017 -2.598291,1.50017 -0.866018,-0.5 -0.499998,-2.13431 0,-3.00034 0.414062,-0.71718 1.330424,-1.61809 2.124935,-1.62264 z" /><path
       id="path440"
       style="fill:#a5a5a5;fill-opacity:1;stroke-width:2.64583"
       d="m 90.81769,154.1529 c -1.082531,0 -2.164835,0.37499 -3.463871,1.12499 l -12.990422,7.4998 c -2.598074,1.5 -2.598074,2.50028 0,4.00028 l 12.990422,7.4998 c 2.598073,1.5 4.330185,1.5 6.928259,0 l 12.990422,-7.4998 c 2.59807,-1.5 2.59807,-2.50028 0,-4.00028 l -12.990422,-7.4998 c -1.299037,-0.75 -2.381858,-1.12499 -3.464388,-1.12499 z m 0,4.12481 a 2.5980775,1.5000049 0 0 1 2.598291,1.50017 2.5980775,1.5000049 0 0 1 -2.598291,1.50016 2.5980775,1.5000049 0 0 1 -2.597774,-1.50016 2.5980775,1.5000049 0 0 1 2.597774,-1.50017 z m 4.329968,2.50011 a 2.5980794,1.500006 0 0 1 2.598291,1.50016 2.5980794,1.500006 0 0 1 -2.598291,1.50017 2.5980794,1.500006 0 0 1 -2.597774,-1.50017 2.5980794,1.500006 0 0 1 2.597774,-1.50016 z m -12.989905,2.5001 a 2.598079,1.5000057 0 0 1 2.597775,1.50017 2.598079,1.5000057 0 0 1 -2.597775,1.49965 2.598079,1.5000057 0 0 1 -2.598291,-1.49965 2.598079,1.5000057 0 0 1 2.598291,-1.50017 z m 17.32039,0 a 2.5980763,1.5000042 0 0 1 2.597777,1.50017 2.5980763,1.5000042 0 0 1 -2.597777,1.49965 2.5980763,1.5000042 0 0 1 -2.598291,-1.49965 2.5980763,1.5000042 0 0 1 2.598291,-1.50017 z m -12.990421,2.50011 a 2.598078,1.5000051 0 0 1 2.597774,1.49965 2.598078,1.5000051 0 0 1 -2.597774,1.50016 2.598078,1.5000051 0 0 1 -2.598291,-1.50016 2.598078,1.5000051 0 0 1 2.598291,-1.49965 z m 4.329968,2.5001 a 2.5980775,1.5000049 0 0 1 2.598291,1.49965 2.5980775,1.5000049 0 0 1 -2.598291,1.50017 2.5980775,1.5000049 0 0 1 -2.597774,-1.50017 2.5980775,1.5000049 0 0 1 2.597774,-1.49965 z" /><path
       id="path312-9"
       style="mix-blend-mode:overlay;fill:#70a7ed;fill-opacity:1;stroke-width:2.64583"
       d="m 90.817904,154.1529 c -1.08253,0 -2.16484,0.37499 -3.46388,1.12499 l -12.99042,7.4998 c -2.59807,1.5 -2.59807,2.50028 0,4.00028 l 12.99042,7.4998 c 2.59807,1.5 4.33019,1.5 6.92826,0 l 12.990426,-7.4998 c 2.59806,-1.5 2.59806,-2.50028 0,-4.00028 l -12.990426,-7.4998 c -1.29903,-0.75 -2.38186,-1.12499 -3.46438,-1.12499 z m 0,4.12481 a 2.5980775,1.5000049 0 0 1 2.59829,1.50017 2.5980775,1.5000049 0 0 1 -2.59829,1.50016 2.5980775,1.5000049 0 0 1 -2.59778,-1.50016 2.5980775,1.5000049 0 0 1 2.59778,-1.50017 z m 4.32996,2.50011 a 2.5980794,1.500006 0 0 1 2.59829,1.50016 2.5980794,1.500006 0 0 1 -2.59829,1.50017 2.5980794,1.500006 0 0 1 -2.59777,-1.50017 2.5980794,1.500006 0 0 1 2.59777,-1.50016 z m -12.9899,2.5001 a 2.598079,1.5000057 0 0 1 2.59777,1.50017 2.598079,1.5000057 0 0 1 -2.59777,1.49965 2.598079,1.5000057 0 0 1 -2.59829,-1.49965 2.598079,1.5000057 0 0 1 2.59829,-1.50017 z m 17.320389,0 a 2.5980763,1.5000042 0 0 1 2.597777,1.50017 2.5980763,1.5000042 0 0 1 -2.597777,1.49965 2.5980763,1.5000042 0 0 1 -2.598289,-1.49965 2.5980763,1.5000042 0 0 1 2.598289,-1.50017 z m -12.990419,2.50011 a 2.598078,1.5000051 0 0 1 2.59777,1.49965 2.598078,1.5000051 0 0 1 -2.59777,1.50016 2.598078,1.5000051 0 0 1 -2.59829,-1.50016 2.598078,1.5000051 0 0 1 2.59829,-1.49965 z m -15.18202,1.68052 c -0.92257,0.0148 -1.27279,0.91224 -1.27279,2.81946 v 15.00012 c 0,3 0.86631,4.4997 3.48041,6.00893 l 12.9744,7.49102 c 2.59807,1.5 3.46387,0.99959 3.46387,-2.00039 v -14.99961 c 0,-2.99998 -0.8658,-4.50015 -3.46387,-6.00015 l -12.99042,-7.4998 c -0.89309,-0.51562 -1.58172,-0.79538 -2.10065,-0.81803 -0.031,-0.001 -0.0612,-0.002 -0.0909,-0.002 z m 39.023966,0 c -0.0298,-4.8e-4 -0.06,1.9e-4 -0.091,0.002 -0.51893,0.0226 -1.20757,0.30241 -2.10064,0.81803 l -12.990376,7.49935 c -2.59807,1.5 -3.46387,3.00017 -3.46387,6.00015 v 14.99961 c 0,2.99998 0.8658,3.50039 3.46387,2.00039 l 12.974406,-7.49102 c 2.61408,-1.50923 3.4804,-3.00893 3.4804,-6.00893 v -15.00012 c 0,-1.90722 -0.35022,-2.80459 -1.27279,-2.81946 z m -19.511976,0.81958 a 2.5980775,1.5000049 0 0 1 2.59829,1.49965 2.5980775,1.5000049 0 0 1 -2.59829,1.50017 2.5980775,1.5000049 0 0 1 -2.59778,-1.50017 2.5980775,1.5000049 0 0 1 2.59778,-1.49965 z m -15.98094,5.37694 c 0.79451,0.005 1.71036,0.90546 2.12442,1.62264 0.5,0.86603 0.86602,2.50033 0,3.00033 -0.86603,0.5 -2.09778,-0.63414 -2.59778,-1.50017 -0.5,-0.86603 -0.86602,-2.49981 0,-2.99981 0.14885,-0.0859 0.30846,-0.12394 0.47336,-0.12299 z m 31.961866,0 c 0.1649,-9.5e-4 0.32503,0.037 0.47388,0.12299 0.866,0.5 0.49997,2.13378 0,2.99981 -0.5,0.86603 -1.73227,2.00017 -2.5983,1.50017 -0.86601,-0.5 -0.49998,-2.1343 0,-3.00033 0.41407,-0.71718 1.32991,-1.6181 2.12442,-1.62264 z m -23.301926,5.00021 c 0.7945,0.005 1.71087,0.90546 2.12493,1.62264 0.5,0.86603 0.86602,2.49984 0,2.99981 -0.86603,0.5 -2.09829,-0.63362 -2.59829,-1.49965 -0.5,-0.866 -0.86603,-2.50033 0,-3.00033 0.14885,-0.0859 0.30846,-0.12342 0.47336,-0.12247 z m 14.642,0 c 0.16489,-9.5e-4 0.3245,0.0365 0.47335,0.12247 0.866019,0.5 0.5,2.13433 0,3.00033 -0.5,0.86603 -1.73227,1.99965 -2.59829,1.49965 -0.86603,-0.49997 -0.5,-2.13378 0,-2.99981 0.41406,-0.71718 1.33043,-1.61809 2.12494,-1.62264 z m 4.329966,2.5001 c 0.1649,-9.4e-4 0.32451,0.0365 0.47335,0.12248 0.86603,0.5 0.50001,2.13378 0,2.99981 -0.49999,0.86603 -1.73175,2.00017 -2.59777,1.50017 -0.866027,-0.5 -0.499997,-2.13379 0,-2.99982 0.41406,-0.71718 1.32991,-1.61809 2.12442,-1.62264 z m -27.631906,2.50011 c 0.79451,0.005 1.71036,0.90546 2.12442,1.62264 0.5,0.86603 0.86602,2.49982 0,2.99982 -0.86603,0.5 -2.09778,-0.63414 -2.59778,-1.50017 -0.5,-0.86603 -0.86602,-2.49982 0,-2.99982 0.14885,-0.0859 0.30846,-0.12341 0.47336,-0.12247 z m 31.961866,0 c 0.1649,-9.4e-4 0.32503,0.0365 0.47388,0.12247 0.86599,0.5 0.49997,2.13379 0,2.99982 -0.5,0.86603 -1.73228,2.00017 -2.5983,1.50017 -0.86601,-0.5 -0.49999,-2.13379 0,-2.99982 0.41407,-0.71718 1.32991,-1.61809 2.12442,-1.62264 z m -23.301926,4.99969 c 0.7945,0.005 1.71087,0.90546 2.12493,1.62264 0.5,0.86603 0.86602,2.50034 0,3.00034 -0.86603,0.5 -2.09829,-0.63414 -2.59829,-1.50017 -0.5,-0.86603 -0.86603,-2.49982 0,-2.99982 0.14885,-0.0859 0.30846,-0.12393 0.47336,-0.12299 z m 14.642,0 c 0.16489,-9.4e-4 0.3245,0.0371 0.47335,0.12299 0.866029,0.5 0.5,2.13379 0,2.99982 -0.5,0.86603 -1.73226,2.00017 -2.59829,1.50017 -0.86602,-0.5 -0.5,-2.13431 0,-3.00034 0.41406,-0.71718 1.33043,-1.61809 2.12494,-1.62264 z" /></g></svg>
